<?xml version="1.0" standalone="no"?>
<!DOCTYPE svg PUBLIC "-//W3C//DTD SVG 20010904//EN"
 "http://www.w3.org/TR/2001/REC-SVG-20010904/DTD/svg10.dtd">
<svg version="1.0" xmlns="http://www.w3.org/2000/svg"
 width="512.000000pt" height="512.000000pt" viewBox="0 0 512.000000 512.000000"
 preserveAspectRatio="xMidYMid meet">

<g transform="translate(0.000000,512.000000) scale(0.100000,-0.100000)"
fill="#0ea5e9" stroke="none">
<path d="M370 4375 l0 -115 770 0 770 0 0 -335 0 -335 1495 0 1495 0 0 -500 0
-500 61 -67 c34 -38 84 -99 110 -137 l49 -69 0 746 0 747 -1500 0 -1500 0 0
340 0 340 -875 0 -875 0 0 -115z"/>
<path d="M0 2280 l0 -1650 1594 0 1594 0 -85 83 c-264 255 -396 569 -395 937
0 381 153 717 441 974 336 298 835 399 1266 255 49 -17 141 -57 203 -89 l112
-59 0 314 0 315 -1575 0 -1575 0 0 285 0 285 -790 0 -790 0 0 -1650z"/>
<path d="M4110 2609 c-30 -5 -66 -18 -80 -28 -15 -10 -50 -20 -86 -23 -181
-17 -314 -181 -314 -390 0 -45 -5 -63 -21 -79 -18 -18 -20 -28 -14 -82 5 -48
12 -67 30 -82 13 -11 33 -46 45 -78 29 -78 110 -197 168 -247 26 -22 80 -57
120 -77 64 -32 85 -37 161 -41 150 -7 267 43 379 162 55 59 142 207 142 241 0
7 12 22 27 33 24 17 27 28 31 86 3 51 1 71 -11 84 -10 11 -20 54 -27 126 -16
160 -59 255 -140 311 -47 33 -155 71 -240 84 -74 12 -93 12 -170 0z m-34 -384
c64 -43 287 -104 477 -131 l47 -6 0 -42 c0 -170 -138 -386 -295 -462 -54 -26
-70 -29 -160 -29 -89 0 -106 3 -155 27 -164 81 -290 282 -290 464 l0 49 88 34
c103 40 218 96 227 111 9 15 20 12 61 -15z"/>
<path d="M3690 1538 c-134 -52 -241 -232 -300 -506 -24 -112 -50 -296 -50
-359 l0 -43 806 0 805 0 -6 73 c-46 511 -187 810 -402 853 -31 6 -34 3 -134
-132 -56 -77 -104 -141 -106 -143 -3 -5 -26 11 -101 71 l-58 46 -75 -58 c-40
-33 -77 -59 -81 -60 -3 0 -48 56 -98 125 -101 138 -116 155 -133 154 -7 0 -37
-10 -67 -21z"/>
</g>
</svg>
